<svg width="991" height="991" viewBox="0 0 991 991" fill="none" xmlns="http://www.w3.org/2000/svg">
<g clip-path="url(#clip0_210_5325)">
<rect width="990.566" height="990.566" fill="black"/>
<g opacity="0.4">
<path d="M152.547 818.207V-11.887" stroke="#6E6E6E" stroke-width="1.98113"/>
<path d="M245.656 818.207V-11.887" stroke="#6E6E6E" stroke-width="1.98113"/>
<path d="M338.773 818.207V-11.887" stroke="#6E6E6E" stroke-width="1.98113"/>
<path d="M431.883 818.207V-11.887" stroke="#6E6E6E" stroke-width="1.98113"/>
<path d="M525 818.207V-11.887" stroke="#6E6E6E" stroke-width="1.98113"/>
<path d="M618.109 818.207V-11.887" stroke="#6E6E6E" stroke-width="1.98113"/>
<path d="M804.336 818.207V-11.887" stroke="#6E6E6E" stroke-width="1.98113"/>
<path d="M897.453 818.207V-11.887" stroke="#6E6E6E" stroke-width="1.98113"/>
<path d="M990.562 818.207V-11.887" stroke="#6E6E6E" stroke-width="1.98113"/>
<path d="M711.227 818.207V-11.887" stroke="#6E6E6E" stroke-width="1.98113"/>
<path d="M58.4375 818.207V-11.887" stroke="#6E6E6E" stroke-width="1.98113"/>
<path d="M990.56 55.4714L-17.8359 55.4714" stroke="#6E6E6E" stroke-width="1.98113"/>
<path d="M990.56 150.566L-17.8359 150.566" stroke="#6E6E6E" stroke-width="1.98113"/>
<path d="M990.56 245.66L-17.8359 245.66" stroke="#6E6E6E" stroke-width="1.98113"/>
<path d="M990.56 340.755L-17.8359 340.755" stroke="#6E6E6E" stroke-width="1.98113"/>
<path d="M990.56 435.849L-17.8359 435.849" stroke="#6E6E6E" stroke-width="1.98113"/>
<path d="M990.56 530.943L-17.8359 530.943" stroke="#6E6E6E" stroke-width="1.98113"/>
<path d="M990.56 626.038L-17.8359 626.038" stroke="#6E6E6E" stroke-width="1.98113"/>
<path d="M990.56 721.132L-17.8359 721.132" stroke="#6E6E6E" stroke-width="1.98113"/>
<path d="M990.56 816.226L-17.8359 816.226" stroke="#6E6E6E" stroke-width="1.98113"/>
<path d="M-49.5312 876.651H997.497" stroke="#6E6E6E" stroke-width="1.98113"/>
<path d="M-49.5312 946.981H997.497" stroke="#6E6E6E" stroke-width="1.98113"/>
<path d="M-46.5625 889.528L43.579 819.198M-19.8172 946.981L143.626 819.198M58.4375 1003.44L244.664 819.198M215.937 1003.44L328.862 819.198M366.504 1003.44L430.89 819.198M524.004 1003.44V819.198M679.522 1003.44L618.107 819.198M831.079 1003.44L717.164 819.198M983.626 1003.44L814.239 819.198M998.485 899.434L905.371 819.198" stroke="#6E6E6E" stroke-width="1.98113"/>
</g>
<path d="M413.602 249.089V723.045L468.872 744.69M413.602 249.089L468.872 150.566M413.602 249.089L468.872 273.72M468.872 150.566L527.981 249.089L527.214 249.409M468.872 150.566V273.72M468.872 273.72V744.69M468.872 273.72L527.214 249.409M468.872 744.69L527.214 723.045V249.409" stroke="white" stroke-width="3.31"/>
<path d="M577.879 781.154L527.984 759.509V457.222M577.879 781.154L804.338 687.109V390.047C800.499 359.694 779.312 298.689 725.269 297.495M577.879 781.154V472.896M725.269 297.495C657.715 296.002 582.485 355.713 577.879 472.896M725.269 297.495C710.683 286.299 666.313 271.372 605.514 301.227C544.716 331.083 528.495 417.664 527.984 457.222M577.879 472.896L627.009 452.744M577.879 472.896L527.984 457.222M627.009 452.744C628.544 428.113 642.516 376.164 686.118 365.416M627.009 452.744V663.225M627.009 452.744V705.769M686.118 365.416C740.622 351.981 752.905 392.286 752.905 452.744V652.029M686.118 365.416C700.243 379.747 703.775 400.248 703.775 408.707V630.384M752.905 652.029L703.775 630.384M752.905 652.029L627.009 705.769M703.775 630.384L627.009 663.225M627.009 663.225V705.769" stroke="white" stroke-width="3.31"/>
<path d="M152.547 791.171L365.189 516.5L583.204 782.214L365.189 879.991L152.547 791.171Z" fill="black"/>
<path d="M365.189 516.5L152.547 791.171L365.189 879.991M365.189 516.5V879.991M365.189 516.5L583.204 782.214L365.189 879.991" stroke="white" stroke-width="3.31"/>
</g>
<defs>
<clipPath id="clip0_210_5325">
<rect width="990.566" height="990.566" fill="white"/>
</clipPath>
</defs>
</svg>
