<svg width="991" height="991" viewBox="0 0 991 991" fill="none" xmlns="http://www.w3.org/2000/svg">
<g clip-path="url(#clip0_209_5189)">
<rect width="990.566" height="990.566" fill="black"/>
<g opacity="0.4">
<path d="M152.547 818.207V-11.887" stroke="#6E6E6E" stroke-width="1.98113"/>
<path d="M245.656 818.207V-11.887" stroke="#6E6E6E" stroke-width="1.98113"/>
<path d="M338.773 818.207V-11.887" stroke="#6E6E6E" stroke-width="1.98113"/>
<path d="M431.883 818.207V-11.887" stroke="#6E6E6E" stroke-width="1.98113"/>
<path d="M525 818.207V-11.887" stroke="#6E6E6E" stroke-width="1.98113"/>
<path d="M618.109 818.207V-11.887" stroke="#6E6E6E" stroke-width="1.98113"/>
<path d="M804.336 818.207V-11.887" stroke="#6E6E6E" stroke-width="1.98113"/>
<path d="M897.453 818.207V-11.887" stroke="#6E6E6E" stroke-width="1.98113"/>
<path d="M990.562 818.207V-11.887" stroke="#6E6E6E" stroke-width="1.98113"/>
<path d="M711.227 818.207V-11.887" stroke="#6E6E6E" stroke-width="1.98113"/>
<path d="M58.4375 818.207V-11.887" stroke="#6E6E6E" stroke-width="1.98113"/>
<path d="M990.56 55.4714L-17.8359 55.4714" stroke="#6E6E6E" stroke-width="1.98113"/>
<path d="M990.56 150.566L-17.8359 150.566" stroke="#6E6E6E" stroke-width="1.98113"/>
<path d="M990.56 245.66L-17.8359 245.66" stroke="#6E6E6E" stroke-width="1.98113"/>
<path d="M990.56 340.755L-17.8359 340.755" stroke="#6E6E6E" stroke-width="1.98113"/>
<path d="M990.56 435.849L-17.8359 435.849" stroke="#6E6E6E" stroke-width="1.98113"/>
<path d="M990.56 530.943L-17.8359 530.943" stroke="#6E6E6E" stroke-width="1.98113"/>
<path d="M990.56 626.038L-17.8359 626.038" stroke="#6E6E6E" stroke-width="1.98113"/>
<path d="M990.56 721.132L-17.8359 721.132" stroke="#6E6E6E" stroke-width="1.98113"/>
<path d="M990.56 816.226L-17.8359 816.226" stroke="#6E6E6E" stroke-width="1.98113"/>
<path d="M-49.5312 876.651H997.497" stroke="#6E6E6E" stroke-width="1.98113"/>
<path d="M-49.5312 946.981H997.497" stroke="#6E6E6E" stroke-width="1.98113"/>
<path d="M-46.5625 889.528L43.579 819.198M-19.8172 946.981L143.626 819.198M58.4375 1003.44L244.664 819.198M215.937 1003.44L328.862 819.198M366.504 1003.44L430.89 819.198M524.004 1003.44V819.198M679.522 1003.44L618.107 819.198M831.079 1003.44L717.164 819.198M983.626 1003.44L814.239 819.198M998.485 899.434L905.371 819.198" stroke="#6E6E6E" stroke-width="1.98113"/>
</g>
<path d="M58.4375 631.826L171.309 354.274M58.4375 631.826L171.309 498.567M58.4375 631.826L313.339 569.864M171.309 354.274V498.567M171.309 354.274L313.339 424.723M171.309 354.274L318.042 280.43L457.251 349.181M171.309 498.567L313.339 569.864M313.339 569.864V424.723M313.339 569.864V667.475L457.251 743.016M313.339 569.864L457.251 645.406M313.339 424.723L457.251 349.181M313.339 424.723L457.251 498.567M457.251 349.181L605.866 424.723M457.251 349.181V220.166M457.251 498.567L605.866 424.723M457.251 498.567V645.406M605.866 424.723L756.363 349.181M605.866 424.723L749.778 508.752M605.866 424.723V564.772M605.866 424.723V288.918M457.251 220.166L605.866 150.566L756.363 220.166M457.251 220.166L605.866 288.918M756.363 220.166L605.866 288.918M756.363 220.166V349.181M756.363 349.181L897.453 424.723M749.778 508.752L897.453 424.723M749.778 508.752V640.314M897.453 424.723V667.475L749.778 743.813M605.866 818.207V714.158M605.866 818.207L457.251 743.016M605.866 818.207L749.778 743.813M605.866 714.158L749.778 640.314M605.866 714.158L457.251 645.406M749.778 640.314L605.866 564.772M749.778 640.314V743.813M605.866 564.772L457.251 645.406M457.251 645.406V743.016" stroke="white" stroke-width="3.31"/>
</g>
<defs>
<clipPath id="clip0_209_5189">
<rect width="990.566" height="990.566" fill="white"/>
</clipPath>
</defs>
</svg>
