<svg width="991" height="991" viewBox="0 0 991 991" fill="none" xmlns="http://www.w3.org/2000/svg">
<g clip-path="url(#clip0_176_4176)">
<rect width="990.566" height="990.566" transform="translate(0.21875)" fill="black"/>
<g opacity="0.4">
<path d="M152.766 818.207V-11.887" stroke="#6E6E6E" stroke-width="1.98113"/>
<path d="M245.875 818.207V-11.887" stroke="#6E6E6E" stroke-width="1.98113"/>
<path d="M338.992 818.207V-11.887" stroke="#6E6E6E" stroke-width="1.98113"/>
<path d="M432.102 818.207V-11.887" stroke="#6E6E6E" stroke-width="1.98113"/>
<path d="M525.219 818.207V-11.887" stroke="#6E6E6E" stroke-width="1.98113"/>
<path d="M618.328 818.207V-11.887" stroke="#6E6E6E" stroke-width="1.98113"/>
<path d="M804.555 818.207V-11.887" stroke="#6E6E6E" stroke-width="1.98113"/>
<path d="M897.672 818.207V-11.887" stroke="#6E6E6E" stroke-width="1.98113"/>
<path d="M990.781 818.207V-11.887" stroke="#6E6E6E" stroke-width="1.98113"/>
<path d="M711.445 818.207V-11.887" stroke="#6E6E6E" stroke-width="1.98113"/>
<path d="M58.6562 818.207V-11.887" stroke="#6E6E6E" stroke-width="1.98113"/>
<path d="M990.779 55.4714L-17.6172 55.4714" stroke="#6E6E6E" stroke-width="1.98113"/>
<path d="M990.779 150.566L-17.6172 150.566" stroke="#6E6E6E" stroke-width="1.98113"/>
<path d="M990.779 245.66L-17.6172 245.66" stroke="#6E6E6E" stroke-width="1.98113"/>
<path d="M990.779 340.755L-17.6172 340.755" stroke="#6E6E6E" stroke-width="1.98113"/>
<path d="M990.779 435.849L-17.6172 435.849" stroke="#6E6E6E" stroke-width="1.98113"/>
<path d="M990.779 530.943L-17.6172 530.943" stroke="#6E6E6E" stroke-width="1.98113"/>
<path d="M990.779 626.038L-17.6172 626.038" stroke="#6E6E6E" stroke-width="1.98113"/>
<path d="M990.779 721.132L-17.6172 721.132" stroke="#6E6E6E" stroke-width="1.98113"/>
<path d="M990.779 816.226L-17.6172 816.226" stroke="#6E6E6E" stroke-width="1.98113"/>
<path d="M-49.3125 876.651H997.716" stroke="#6E6E6E" stroke-width="1.98113"/>
<path d="M-49.3125 946.981H997.716" stroke="#6E6E6E" stroke-width="1.98113"/>
<path d="M-46.3438 889.528L43.7978 819.198M-19.5985 946.981L143.845 819.198M58.6562 1003.44L244.883 819.198M216.156 1003.44L329.081 819.198M366.722 1003.44L431.109 819.198M524.222 1003.44V819.198M679.741 1003.44L618.326 819.198M831.298 1003.44L717.383 819.198M983.845 1003.44L814.458 819.198M998.703 899.434L905.59 819.198" stroke="#6E6E6E" stroke-width="1.98113"/>
</g>
<path d="M202.624 555.746L59.6484 640.592L202.624 723.706L343.947 640.592M202.624 555.746L343.947 640.592M202.624 555.746V392.982M343.947 640.592L483.203 725.437M343.947 640.592V473.931M202.624 230.217L343.947 150.566L479.484 230.217M202.624 230.217L343.947 312.376M202.624 230.217V392.982M479.484 230.217L622.46 150.566L760.477 230.217M479.484 230.217L621.84 312.376M479.484 230.217L482.893 393.153M760.477 230.217V392.116M760.477 230.217L621.84 312.376M760.477 392.116L897.667 478.693M760.477 392.116L621.84 473.931M897.667 478.693V640.592L760.477 725.183M897.667 478.693L622.46 640.592M622.46 810.283L483.203 725.437M622.46 810.283L760.477 725.183M622.46 810.283V640.592M483.203 725.437V555.746M483.203 555.746L621.84 473.931M483.203 555.746L622.46 640.592M483.203 555.746L343.947 473.931M621.84 473.931L760.477 555.746V725.183M621.84 473.931L482.893 393.153M621.84 473.931V312.376M343.947 312.376L202.624 392.982M343.947 312.376L482.893 393.153M202.624 392.982L343.947 473.931M343.947 473.931L482.893 393.153" stroke="white" stroke-width="3.30579"/>
</g>
<defs>
<clipPath id="clip0_176_4176">
<rect width="990.566" height="990.566" fill="white" transform="translate(0.21875)"/>
</clipPath>
</defs>
</svg>
