<svg width="991" height="991" viewBox="0 0 991 991" fill="none" xmlns="http://www.w3.org/2000/svg">
<g clip-path="url(#clip0_210_5247)">
<rect width="990.566" height="990.566" fill="black"/>
<g opacity="0.4">
<path d="M152.547 818.207V-11.887" stroke="#6E6E6E" stroke-width="1.98113"/>
<path d="M245.656 818.207V-11.887" stroke="#6E6E6E" stroke-width="1.98113"/>
<path d="M338.773 818.207V-11.887" stroke="#6E6E6E" stroke-width="1.98113"/>
<path d="M431.883 818.207V-11.887" stroke="#6E6E6E" stroke-width="1.98113"/>
<path d="M525 818.207V-11.887" stroke="#6E6E6E" stroke-width="1.98113"/>
<path d="M618.109 818.207V-11.887" stroke="#6E6E6E" stroke-width="1.98113"/>
<path d="M804.336 818.207V-11.887" stroke="#6E6E6E" stroke-width="1.98113"/>
<path d="M897.453 818.207V-11.887" stroke="#6E6E6E" stroke-width="1.98113"/>
<path d="M990.562 818.207V-11.887" stroke="#6E6E6E" stroke-width="1.98113"/>
<path d="M711.227 818.207V-11.887" stroke="#6E6E6E" stroke-width="1.98113"/>
<path d="M58.4375 818.207V-11.887" stroke="#6E6E6E" stroke-width="1.98113"/>
<path d="M990.56 55.4714L-17.8359 55.4714" stroke="#6E6E6E" stroke-width="1.98113"/>
<path d="M990.56 150.566L-17.8359 150.566" stroke="#6E6E6E" stroke-width="1.98113"/>
<path d="M990.56 245.66L-17.8359 245.66" stroke="#6E6E6E" stroke-width="1.98113"/>
<path d="M990.56 340.755L-17.8359 340.755" stroke="#6E6E6E" stroke-width="1.98113"/>
<path d="M990.56 435.849L-17.8359 435.849" stroke="#6E6E6E" stroke-width="1.98113"/>
<path d="M990.56 530.943L-17.8359 530.943" stroke="#6E6E6E" stroke-width="1.98113"/>
<path d="M990.56 626.038L-17.8359 626.038" stroke="#6E6E6E" stroke-width="1.98113"/>
<path d="M990.56 721.132L-17.8359 721.132" stroke="#6E6E6E" stroke-width="1.98113"/>
<path d="M990.56 816.226L-17.8359 816.226" stroke="#6E6E6E" stroke-width="1.98113"/>
<path d="M-49.5312 876.651H997.497" stroke="#6E6E6E" stroke-width="1.98113"/>
<path d="M-49.5312 946.981H997.497" stroke="#6E6E6E" stroke-width="1.98113"/>
<path d="M-46.5625 889.528L43.579 819.198M-19.8172 946.981L143.626 819.198M58.4375 1003.44L244.664 819.198M215.937 1003.44L328.862 819.198M366.504 1003.44L430.89 819.198M524.004 1003.44V819.198M679.522 1003.44L618.107 819.198M831.079 1003.44L717.164 819.198M983.626 1003.44L814.239 819.198M998.485 899.434L905.371 819.198" stroke="#6E6E6E" stroke-width="1.98113"/>
</g>
<path d="M804.336 453.541V630.461L596.526 735.184M804.336 453.541L723.978 421.545M804.336 453.541L596.526 543.178M584.947 366.187L516.069 393.83M584.947 366.187V255.16L497.037 287.591L723.978 205.853M584.947 366.187L723.978 421.545M516.069 393.83V509.097M516.069 393.83C516.069 312.499 499.891 276.189 469.084 261.452M723.978 205.853L584.947 150.566L383.416 225.757M723.978 205.853V421.545M383.416 225.757C351.492 214.835 274.135 217.702 220.096 316.538C213.216 329.318 200.439 369.193 204.37 426.45V651.387M383.416 225.757L469.084 261.452M204.37 651.387L152.547 671.373L394.16 794.972L435.709 816.226L596.526 735.184M204.37 651.387L281.032 690.58M281.032 690.58L330.175 671.373V601.117M281.032 690.58V415.373C281.032 366.187 300.583 266.711 426.494 253.4C445.052 251.439 454.178 254.321 469.084 261.452M516.069 509.097L456.286 484.505L457.945 415.373M516.069 509.097L723.978 421.545M516.069 509.097L596.526 543.178M596.526 543.178V690.58M596.526 543.178L370.471 448.603M596.526 735.184V690.58M596.526 690.58L370.471 584.928M370.471 584.928L330.175 601.117M370.471 584.928V448.603M330.175 601.117V411.113C327.881 385.552 335.053 306.313 400.94 306.313C409.008 306.313 457.945 313.106 457.945 387.256V415.373M370.471 448.603L457.945 415.373" stroke="white" stroke-width="3.31"/>
</g>
<defs>
<clipPath id="clip0_210_5247">
<rect width="990.566" height="990.566" fill="white"/>
</clipPath>
</defs>
</svg>
