<svg width="991" height="991" viewBox="0 0 991 991" fill="none" xmlns="http://www.w3.org/2000/svg">
<g clip-path="url(#clip0_210_5377)">
<rect width="990.566" height="990.566" fill="black"/>
<g opacity="0.4">
<path d="M152.547 818.207V-11.887" stroke="#6E6E6E" stroke-width="1.98113"/>
<path d="M245.656 818.207V-11.887" stroke="#6E6E6E" stroke-width="1.98113"/>
<path d="M338.773 818.207V-11.887" stroke="#6E6E6E" stroke-width="1.98113"/>
<path d="M431.883 818.207V-11.887" stroke="#6E6E6E" stroke-width="1.98113"/>
<path d="M525 818.207V-11.887" stroke="#6E6E6E" stroke-width="1.98113"/>
<path d="M618.109 818.207V-11.887" stroke="#6E6E6E" stroke-width="1.98113"/>
<path d="M804.336 818.207V-11.887" stroke="#6E6E6E" stroke-width="1.98113"/>
<path d="M897.453 818.207V-11.887" stroke="#6E6E6E" stroke-width="1.98113"/>
<path d="M990.562 818.207V-11.887" stroke="#6E6E6E" stroke-width="1.98113"/>
<path d="M711.227 818.207V-11.887" stroke="#6E6E6E" stroke-width="1.98113"/>
<path d="M58.4375 818.207V-11.887" stroke="#6E6E6E" stroke-width="1.98113"/>
<path d="M990.56 55.4714L-17.8359 55.4714" stroke="#6E6E6E" stroke-width="1.98113"/>
<path d="M990.56 150.566L-17.8359 150.566" stroke="#6E6E6E" stroke-width="1.98113"/>
<path d="M990.56 245.66L-17.8359 245.66" stroke="#6E6E6E" stroke-width="1.98113"/>
<path d="M990.56 340.755L-17.8359 340.755" stroke="#6E6E6E" stroke-width="1.98113"/>
<path d="M990.56 435.849L-17.8359 435.849" stroke="#6E6E6E" stroke-width="1.98113"/>
<path d="M990.56 530.943L-17.8359 530.943" stroke="#6E6E6E" stroke-width="1.98113"/>
<path d="M990.56 626.038L-17.8359 626.038" stroke="#6E6E6E" stroke-width="1.98113"/>
<path d="M990.56 721.132L-17.8359 721.132" stroke="#6E6E6E" stroke-width="1.98113"/>
<path d="M990.56 816.226L-17.8359 816.226" stroke="#6E6E6E" stroke-width="1.98113"/>
<path d="M-49.5312 876.651H997.497" stroke="#6E6E6E" stroke-width="1.98113"/>
<path d="M-49.5312 946.981H997.497" stroke="#6E6E6E" stroke-width="1.98113"/>
<path d="M-46.5625 889.528L43.579 819.198M-19.8172 946.981L143.626 819.198M58.4375 1003.44L244.664 819.198M215.937 1003.44L328.862 819.198M366.504 1003.44L430.89 819.198M524.004 1003.44V819.198M679.522 1003.44L618.107 819.198M831.079 1003.44L717.164 819.198M983.626 1003.44L814.239 819.198M998.485 899.434L905.371 819.198" stroke="#6E6E6E" stroke-width="1.98113"/>
</g>
<path d="M58.4375 614.819V748.816L203.401 819.198M58.4375 614.819L203.401 547.143M58.4375 614.819L203.401 683.847M203.401 547.143L341.04 621.586M203.401 547.143V414.5M341.04 621.586V748.816M341.04 621.586L203.401 683.847M341.04 621.586V478.115M341.04 621.586L480.143 547.143M341.04 621.586L480.143 683.847M341.04 748.816L203.401 819.198M341.04 748.816L480.143 819.198M203.401 819.198V683.847M203.401 414.5L341.04 352.239M203.401 414.5L341.04 478.115M341.04 352.239L480.143 414.5M341.04 352.239V216.888M480.143 414.5L341.04 478.115M480.143 414.5V547.143M480.143 414.5L623.639 478.115M480.143 414.5L614.854 352.239M480.143 414.5V273.735M480.143 547.143L623.639 614.819M623.639 614.819L480.143 683.847M623.639 614.819V748.816M623.639 614.819L756.886 547.143M623.639 614.819L756.886 675.726M623.639 614.819V478.115M480.143 683.847V819.198M480.143 819.198L623.639 748.816M623.639 748.816L756.886 819.198M756.886 547.143L897.453 614.819M756.886 547.143V414.5M897.453 614.819V748.816L756.886 819.198M897.453 614.819L756.886 675.726M756.886 819.198V675.726M623.639 478.115L756.886 414.5M756.886 414.5L614.854 352.239M614.854 352.239V206.9M480.143 273.735L341.04 216.888M480.143 273.735L614.854 206.9M341.04 216.888L480.143 150.566L614.854 206.9" stroke="white" stroke-width="3.31"/>
</g>
<defs>
<clipPath id="clip0_210_5377">
<rect width="990.566" height="990.566" fill="white"/>
</clipPath>
</defs>
</svg>
