<svg width="991" height="991" viewBox="0 0 991 991" fill="none" xmlns="http://www.w3.org/2000/svg">
<g clip-path="url(#clip0_210_5351)">
<rect width="990.566" height="990.566" fill="black"/>
<g opacity="0.4">
<path d="M152.547 818.207V-11.887" stroke="#6E6E6E" stroke-width="1.98113"/>
<path d="M245.656 818.207V-11.887" stroke="#6E6E6E" stroke-width="1.98113"/>
<path d="M338.773 818.207V-11.887" stroke="#6E6E6E" stroke-width="1.98113"/>
<path d="M431.883 818.207V-11.887" stroke="#6E6E6E" stroke-width="1.98113"/>
<path d="M525 818.207V-11.887" stroke="#6E6E6E" stroke-width="1.98113"/>
<path d="M618.109 818.207V-11.887" stroke="#6E6E6E" stroke-width="1.98113"/>
<path d="M804.336 818.207V-11.887" stroke="#6E6E6E" stroke-width="1.98113"/>
<path d="M897.453 818.207V-11.887" stroke="#6E6E6E" stroke-width="1.98113"/>
<path d="M990.562 818.207V-11.887" stroke="#6E6E6E" stroke-width="1.98113"/>
<path d="M711.227 818.207V-11.887" stroke="#6E6E6E" stroke-width="1.98113"/>
<path d="M58.4375 818.207V-11.887" stroke="#6E6E6E" stroke-width="1.98113"/>
<path d="M990.56 55.4714L-17.8359 55.4714" stroke="#6E6E6E" stroke-width="1.98113"/>
<path d="M990.56 150.566L-17.8359 150.566" stroke="#6E6E6E" stroke-width="1.98113"/>
<path d="M990.56 245.66L-17.8359 245.66" stroke="#6E6E6E" stroke-width="1.98113"/>
<path d="M990.56 340.755L-17.8359 340.755" stroke="#6E6E6E" stroke-width="1.98113"/>
<path d="M990.56 435.849L-17.8359 435.849" stroke="#6E6E6E" stroke-width="1.98113"/>
<path d="M990.56 530.943L-17.8359 530.943" stroke="#6E6E6E" stroke-width="1.98113"/>
<path d="M990.56 626.038L-17.8359 626.038" stroke="#6E6E6E" stroke-width="1.98113"/>
<path d="M990.56 721.132L-17.8359 721.132" stroke="#6E6E6E" stroke-width="1.98113"/>
<path d="M990.56 816.226L-17.8359 816.226" stroke="#6E6E6E" stroke-width="1.98113"/>
<path d="M-49.5312 876.651H997.497" stroke="#6E6E6E" stroke-width="1.98113"/>
<path d="M-49.5312 946.981H997.497" stroke="#6E6E6E" stroke-width="1.98113"/>
<path d="M-46.5625 889.528L43.579 819.198M-19.8172 946.981L143.626 819.198M58.4375 1003.44L244.664 819.198M215.937 1003.44L328.862 819.198M366.504 1003.44L430.89 819.198M524.004 1003.44V819.198M679.522 1003.44L618.107 819.198M831.079 1003.44L717.164 819.198M983.626 1003.44L814.239 819.198M998.485 899.434L905.371 819.198" stroke="#6E6E6E" stroke-width="1.98113"/>
</g>
<path d="M172.494 535.4L58.4375 585.919L199.013 654.268L316.599 603.007M172.494 535.4L316.599 603.007M172.494 535.4V424.705M316.599 603.007V490.082M316.599 603.007V685.472L606.584 819.198M316.599 603.007L461.591 670.613M172.494 424.705L311.294 361.556M172.494 424.705L316.599 490.082M311.294 361.556L395.996 399.134M311.294 361.556V191.427M456.011 426.808L316.599 490.082M456.011 426.808L481.926 415.047M456.011 426.808L395.996 399.134M316.599 490.082L481.926 415.047M316.599 490.082L461.318 553.005M606.584 819.198V738.219M606.584 819.198L761.302 747.877V703.312M606.584 738.219L761.302 666.898M606.584 738.219L461.591 670.613M761.302 666.898V703.312M761.302 666.898L627.13 603.007M761.302 663.927V535.4M761.302 535.4L897.453 472.252M761.302 535.4V703.312M761.302 535.4L624.266 477.453M897.453 472.252V629.009L761.302 703.312M897.453 472.252L767.49 410.59M481.926 415.047V281.321M481.926 415.047L624.266 477.453M395.996 399.134V231.544M395.996 231.544L311.294 191.427M395.996 231.544L481.926 191.427M311.294 191.427L395.996 150.566L481.926 191.427M481.926 191.427V281.321M481.926 281.321L624.266 218.172L767.49 281.321M481.926 281.321L624.266 345.955M767.49 281.321L624.266 345.955M767.49 281.321V410.59M624.266 345.955V477.453M624.266 477.453L461.318 553.005M624.266 477.453L767.49 410.59M624.266 477.453V603.007L461.591 670.613M461.318 553.005L461.591 670.613" stroke="white" stroke-width="3.31"/>
</g>
<defs>
<clipPath id="clip0_210_5351">
<rect width="990.566" height="990.566" fill="white"/>
</clipPath>
</defs>
</svg>
