<svg width="991" height="991" viewBox="0 0 991 991" fill="none" xmlns="http://www.w3.org/2000/svg">
<g clip-path="url(#clip0_210_5221)">
<rect width="990.566" height="990.566" fill="black"/>
<g opacity="0.4">
<path d="M152.547 818.207V-11.887" stroke="#6E6E6E" stroke-width="1.98113"/>
<path d="M245.656 818.207V-11.887" stroke="#6E6E6E" stroke-width="1.98113"/>
<path d="M338.773 818.207V-11.887" stroke="#6E6E6E" stroke-width="1.98113"/>
<path d="M431.883 818.207V-11.887" stroke="#6E6E6E" stroke-width="1.98113"/>
<path d="M525 818.207V-11.887" stroke="#6E6E6E" stroke-width="1.98113"/>
<path d="M618.109 818.207V-11.887" stroke="#6E6E6E" stroke-width="1.98113"/>
<path d="M804.336 818.207V-11.887" stroke="#6E6E6E" stroke-width="1.98113"/>
<path d="M897.453 818.207V-11.887" stroke="#6E6E6E" stroke-width="1.98113"/>
<path d="M990.562 818.207V-11.887" stroke="#6E6E6E" stroke-width="1.98113"/>
<path d="M711.227 818.207V-11.887" stroke="#6E6E6E" stroke-width="1.98113"/>
<path d="M58.4375 818.207V-11.887" stroke="#6E6E6E" stroke-width="1.98113"/>
<path d="M990.56 55.4714L-17.8359 55.4714" stroke="#6E6E6E" stroke-width="1.98113"/>
<path d="M990.56 150.566L-17.8359 150.566" stroke="#6E6E6E" stroke-width="1.98113"/>
<path d="M990.56 245.66L-17.8359 245.66" stroke="#6E6E6E" stroke-width="1.98113"/>
<path d="M990.56 340.755L-17.8359 340.755" stroke="#6E6E6E" stroke-width="1.98113"/>
<path d="M990.56 435.849L-17.8359 435.849" stroke="#6E6E6E" stroke-width="1.98113"/>
<path d="M990.56 530.943L-17.8359 530.943" stroke="#6E6E6E" stroke-width="1.98113"/>
<path d="M990.56 626.038L-17.8359 626.038" stroke="#6E6E6E" stroke-width="1.98113"/>
<path d="M990.56 721.132L-17.8359 721.132" stroke="#6E6E6E" stroke-width="1.98113"/>
<path d="M990.56 816.226L-17.8359 816.226" stroke="#6E6E6E" stroke-width="1.98113"/>
<path d="M-49.5312 876.651H997.497" stroke="#6E6E6E" stroke-width="1.98113"/>
<path d="M-49.5312 946.981H997.497" stroke="#6E6E6E" stroke-width="1.98113"/>
<path d="M-46.5625 889.528L43.579 819.198M-19.8172 946.981L143.626 819.198M58.4375 1003.44L244.664 819.198M215.937 1003.44L328.862 819.198M366.504 1003.44L430.89 819.198M524.004 1003.44V819.198M679.522 1003.44L618.107 819.198M831.079 1003.44L717.164 819.198M983.626 1003.44L814.239 819.198M998.485 899.434L905.371 819.198" stroke="#6E6E6E" stroke-width="1.98113"/>
</g>
<path d="M488.381 818.207L804.336 672.594V578.49M488.381 818.207V715.188M488.381 818.207L302.787 725.146M804.336 578.49L562.399 683.164M804.336 578.49L759.523 560.15M488.381 715.188L302.787 625.047M488.381 715.188L562.399 683.164M302.787 625.047V725.146M302.787 625.047V358.585M302.787 625.047L375.147 598.302M302.787 725.146L152.547 649.811V292.217M302.787 309.056L152.547 240.707M302.787 309.056V358.585M302.787 309.056L535.886 223.868M152.547 240.707V292.217M152.547 240.707L194.523 223.868L261.912 253.585L447.507 191.179M152.547 292.217L302.787 358.585M302.787 358.585L375.147 331.832M535.886 223.868V272.405L447.507 305.08M535.886 223.868L447.507 191.179M447.507 191.179L573.447 150.566L682.815 191.179M447.507 191.179L562.399 233.773M682.815 191.179L562.399 233.773M682.815 191.179V317.971M562.399 233.773V524.009M562.399 524.009L607.694 506.396M562.399 524.009L447.507 476.462M447.507 476.462L375.147 508.241M447.507 476.462V305.08M447.507 305.08L375.147 331.832M375.147 331.832V598.302M375.147 598.302L562.399 683.164M607.694 348.679V567.594L678.186 598.302M607.694 348.679L692.377 315.014L759.523 342.108M607.694 348.679L678.186 373.661M759.523 342.108V560.15M759.523 342.108L678.186 373.661M759.523 560.15L678.186 598.302M678.186 598.302V373.661" stroke="white" stroke-width="3.31"/>
</g>
<defs>
<clipPath id="clip0_210_5221">
<rect width="990.566" height="990.566" fill="white"/>
</clipPath>
</defs>
</svg>
