<svg width="991" height="991" viewBox="0 0 991 991" fill="none" xmlns="http://www.w3.org/2000/svg">
<g clip-path="url(#clip0_210_5299)">
<rect width="990.566" height="990.566" fill="black"/>
<g opacity="0.4">
<path d="M152.547 818.207V-11.887" stroke="#6E6E6E" stroke-width="1.98113"/>
<path d="M245.656 818.207V-11.887" stroke="#6E6E6E" stroke-width="1.98113"/>
<path d="M338.773 818.207V-11.887" stroke="#6E6E6E" stroke-width="1.98113"/>
<path d="M431.883 818.207V-11.887" stroke="#6E6E6E" stroke-width="1.98113"/>
<path d="M525 818.207V-11.887" stroke="#6E6E6E" stroke-width="1.98113"/>
<path d="M618.109 818.207V-11.887" stroke="#6E6E6E" stroke-width="1.98113"/>
<path d="M804.336 818.207V-11.887" stroke="#6E6E6E" stroke-width="1.98113"/>
<path d="M897.453 818.207V-11.887" stroke="#6E6E6E" stroke-width="1.98113"/>
<path d="M990.562 818.207V-11.887" stroke="#6E6E6E" stroke-width="1.98113"/>
<path d="M711.227 818.207V-11.887" stroke="#6E6E6E" stroke-width="1.98113"/>
<path d="M58.4375 818.207V-11.887" stroke="#6E6E6E" stroke-width="1.98113"/>
<path d="M990.56 55.4714L-17.8359 55.4714" stroke="#6E6E6E" stroke-width="1.98113"/>
<path d="M990.56 150.566L-17.8359 150.566" stroke="#6E6E6E" stroke-width="1.98113"/>
<path d="M990.56 245.66L-17.8359 245.66" stroke="#6E6E6E" stroke-width="1.98113"/>
<path d="M990.56 340.755L-17.8359 340.755" stroke="#6E6E6E" stroke-width="1.98113"/>
<path d="M990.56 435.849L-17.8359 435.849" stroke="#6E6E6E" stroke-width="1.98113"/>
<path d="M990.56 530.943L-17.8359 530.943" stroke="#6E6E6E" stroke-width="1.98113"/>
<path d="M990.56 626.038L-17.8359 626.038" stroke="#6E6E6E" stroke-width="1.98113"/>
<path d="M990.56 721.132L-17.8359 721.132" stroke="#6E6E6E" stroke-width="1.98113"/>
<path d="M990.56 816.226L-17.8359 816.226" stroke="#6E6E6E" stroke-width="1.98113"/>
<path d="M-49.5312 876.651H997.497" stroke="#6E6E6E" stroke-width="1.98113"/>
<path d="M-49.5312 946.981H997.497" stroke="#6E6E6E" stroke-width="1.98113"/>
<path d="M-46.5625 889.528L43.579 819.198M-19.8172 946.981L143.626 819.198M58.4375 1003.44L244.664 819.198M215.937 1003.44L328.862 819.198M366.504 1003.44L430.89 819.198M524.004 1003.44V819.198M679.522 1003.44L618.107 819.198M831.079 1003.44L717.164 819.198M983.626 1003.44L814.239 819.198M998.485 899.434L905.371 819.198" stroke="#6E6E6E" stroke-width="1.98113"/>
</g>
<path d="M152.547 685.134V741.626L316.407 819.198M152.547 685.134L235.849 648.035M152.547 685.134L316.407 765.235M235.849 648.035L399.712 724.763M235.849 648.035V587.327M399.712 724.763L316.407 765.235M399.712 724.763V665.741M316.407 765.235V819.198M316.407 819.198L510.48 724.763M510.48 724.763V560.346M510.48 724.763L660.612 801.491M510.48 560.346L343.87 483.617M510.48 560.346L455.554 587.327M510.48 560.346V490.363M510.48 560.346L654.204 494.578M510.48 560.346L660.612 632.858M343.87 483.617L292.606 507.226M343.87 483.617V415.321M292.606 507.226L455.554 587.327M292.606 507.226V560.346M455.554 587.327V642.976M455.554 642.976L292.606 560.346M455.554 642.976L399.712 665.741M292.606 560.346L235.849 587.327M235.849 587.327L399.712 665.741M510.48 490.363L343.87 415.321M510.48 490.363L654.204 425.439M343.87 415.321L489.425 349.554M489.425 349.554L654.204 425.439M489.425 349.554V223.922M654.204 425.439V494.578M654.204 494.578L804.336 565.404L660.612 632.858M654.204 494.578V297.277M660.612 632.858V801.491M660.612 801.491L804.336 728.979V223.922M804.336 223.922L644.134 150.566L489.425 223.922M804.336 223.922L654.204 297.277M489.425 223.922L654.204 297.277" stroke="white" stroke-width="3.31"/>
</g>
<defs>
<clipPath id="clip0_210_5299">
<rect width="990.566" height="990.566" fill="white"/>
</clipPath>
</defs>
</svg>
